<svg xmlns="http://www.w3.org/2000/svg" xmlns:xlink="http://www.w3.org/1999/xlink" viewBox="0 0 453.11 99.93"><defs><style>.cls-1{fill:none;}.cls-2{fill:#ffffff;}.cls-3{clip-path:url(#clip-path);}.cls-4{fill:#ffffff;}</style><clipPath id="clip-path" transform="translate(0 0)"><rect class="cls-1" width="453.11" height="99.93"/></clipPath></defs><title>Asset 1</title><g id="Layer_2" data-name="Layer 2"><g id="Layer_1-2" data-name="Layer 1"><rect class="cls-2" x="272.06" y="60.24" width="7.8" height="28.49"/><polygon class="cls-2" points="300 60.24 281.56 79.97 300 99.93 309.27 99.93 290.82 79.97 309.27 60.24 300 60.24"/><g class="cls-3"><path class="cls-2" d="M369.6,83.08a14,14,0,0,0-20.92-9.21V60.25h-6.61V88.66h7.21a7,7,0,0,1-.56-2.75A7.14,7.14,0,1,1,355.86,93a7.33,7.33,0,0,1-2.57-.47v7.12a13.73,13.73,0,0,0,5.39,0A14,14,0,0,0,369.6,83.08" transform="translate(0 0)"/><path class="cls-2" d="M401.93,83.08a14,14,0,0,0-27.49,0,14.21,14.21,0,0,0,0,5.57h7.19a6.88,6.88,0,0,1-.56-2.75A7.14,7.14,0,1,1,388.18,93a7.27,7.27,0,0,1-2.56-.47v7.12a13.74,13.74,0,0,0,5.39,0,14,14,0,0,0,10.91-16.54" transform="translate(0 0)"/><path class="cls-2" d="M334.33,86.41V71.54h-6.63V86.41h0A6.66,6.66,0,0,1,321,93.06a6.77,6.77,0,0,1-3-.72v7a13.32,13.32,0,0,0,16.36-13Z" transform="translate(0 0)"/><path class="cls-2" d="M314.71,88.58a6.79,6.79,0,0,1-.36-2.18h0V71.54h-6.63V86.41a13.43,13.43,0,0,0,.18,2.18Z" transform="translate(0 0)"/><polygon class="cls-2" points="422.17 71.54 415.23 71.54 415.23 60.24 407.86 60.24 407.86 99.93 415.23 99.93 415.23 78.91 422.17 78.91 422.17 71.54"/><path class="cls-2" d="M452.83,83.08a14,14,0,0,0-27.49,0,14.17,14.17,0,0,0,0,5.57h7.18a7,7,0,0,1-.56-2.75A7.14,7.14,0,1,1,439.08,93a7.28,7.28,0,0,1-2.56-.47v7.12a11.68,11.68,0,0,0,5.39-.45,9.34,9.34,0,0,0,4.46-2.76v3.48h6.7V87.05a13.9,13.9,0,0,0-.24-4" transform="translate(0 0)"/><polygon class="cls-4" points="263.65 0.71 288.92 0.71 288.92 7.09 272.06 7.09 272.06 16.87 287.78 16.87 287.78 23.47 272.06 23.47 272.06 40.4 263.65 40.4 263.65 0.71"/><path class="cls-4" d="M305.16,12c9.92,0,14.21,6.81,14.21,14.57S314.92,41.39,305,41.39c-7.81,0-14-4.89-14-14.62,0-6.7,3.36-14.78,14.16-14.78m.11,23.74c3.52,0,5.91-2.14,5.91-9.51,0-3.68-.7-8.79-6-8.79-5.86,0-5.91,6.87-5.91,9.4,0,6.21,2.06,8.9,6,8.9" transform="translate(0 0)"/><path class="cls-4" d="M324.3,19.46c0-1.32-.22-5.33-.38-6.93h7.54l.16,5.33c1-2.36,2.82-5.72,9.33-5.39v7.31c-8.14-.77-8.62,3.46-8.62,6.93V40.4h-8Z" transform="translate(0 0)"/><polygon class="cls-4" points="0 0.71 25.27 0.71 25.27 7.09 8.41 7.09 8.41 16.87 24.13 16.87 24.13 23.47 8.41 23.47 8.41 40.4 0 40.4 0 0.71"/><path class="cls-4" d="M41.51,12c9.92,0,14.21,6.81,14.21,14.57S51.27,41.39,41.35,41.39c-7.81,0-14-4.89-14-14.62,0-6.7,3.36-14.78,14.16-14.78m.11,23.74c3.52,0,5.91-2.14,5.91-9.51,0-3.68-.71-8.79-6-8.79-5.86,0-5.91,6.87-5.91,9.4,0,6.21,2.06,8.9,6,8.9" transform="translate(0 0)"/><path class="cls-4" d="M60.65,19.46c0-1.32-.22-5.33-.38-6.93H67.8L68,17.86c1-2.36,2.82-5.72,9.33-5.39v7.31c-8.14-.77-8.62,3.46-8.62,6.93V40.4h-8Z" transform="translate(0 0)"/><polygon class="cls-4" points="98.63 0.71 124.84 0.71 124.84 7.19 107.03 7.19 107.03 16.63 123.71 16.63 123.71 23.11 107.03 23.11 107.03 33.81 125.44 33.81 125.44 40.4 98.63 40.4 98.63 0.71"/><path class="cls-4" d="M147,40.4a22.44,22.44,0,0,1-.27-3.79c-3,4.45-6.67,4.45-8.19,4.45-4,0-5.75-1.15-6.83-2.2a8.67,8.67,0,0,1-2.39-6.1c0-2.2.76-6.27,5.8-8.63,3.36-1.54,8.19-1.54,10.85-1.54a11,11,0,0,0-.38-3.68,3.7,3.7,0,0,0-3.58-2.31,3.64,3.64,0,0,0-3,1.54,4.23,4.23,0,0,0-.6,2.47h-7.86a7.81,7.81,0,0,1,3.09-6.54,14.17,14.17,0,0,1,8.3-2.25c2.28,0,7,.39,9.76,3.57,1.84,2.25,1.9,5.55,1.9,6.82l.05,11.16a34,34,0,0,0,.65,7Zm-9.87-8.57a3.8,3.8,0,0,0,3.9,4,4.52,4.52,0,0,0,3.42-1.59c1.41-1.76,1.52-3.9,1.52-6.87-5.15-.44-8.84,1.21-8.84,4.51" transform="translate(0 0)"/><path class="cls-4" d="M159.68,19.46c0-1.32-.22-5.33-.38-6.93h7.54l.16,5.33c1-2.36,2.82-5.72,9.33-5.39v7.31c-8.13-.77-8.62,3.46-8.62,6.93V40.4h-8Z" transform="translate(0 0)"/><path class="cls-4" d="M199.89,40a24.6,24.6,0,0,1-6.24.88c-8.08,0-8.08-5.17-8.08-7.48V18.19h-5.26V12.81h5.26V7.37l8-3v8.41H200v5.39h-6.51V30.72c.05,2.53.05,4.12,3.63,4.12a19.79,19.79,0,0,0,2.71-.17Z" transform="translate(0 0)"/><path class="cls-4" d="M205.12.71h8V16.44A8.81,8.81,0,0,1,221,12.26,9.83,9.83,0,0,1,229,16c1,1.37,1.79,3.9,1.79,7.53V40.4h-8V23.8c0-1.59,0-6-4.5-6-2.28,0-5.15,1.32-5.15,5.66l.05,17h-8.08Z" transform="translate(0 0)"/><polygon class="cls-4" points="247.45 31.38 241 44.9 235.41 44.9 239.43 31.38 247.45 31.38"/><polygon class="cls-4" points="364.53 0.71 373.11 0.71 373.11 33.64 389.92 33.64 389.92 40.4 364.53 40.4 364.53 0.71"/><path class="cls-4" d="M394.6.71h8.57V7.81H394.6Zm.27,11.88h8V40.4h-8Z" transform="translate(0 0)"/><path class="cls-4" d="M412.05,18.41H408V12.64h4.07V8.85C412.05,4,413.68,0,421.49,0a34.82,34.82,0,0,1,4.34.27V5.94a10.11,10.11,0,0,0-1.68-.16C420,5.77,420,8,420,9.4v3.24h5.1v5.77H420v22h-8Z" transform="translate(0 0)"/><path class="cls-4" d="M434.68,28.58c0,1.82,0,7.42,5.59,7.42,2,0,4-.77,4.77-3.85h7.32a9.35,9.35,0,0,1-2.6,6c-2,2.14-5.58,3.24-9.6,3.24-2.33,0-6.78-.44-9.65-3.46C428,35.34,427,31.61,427,27.15s1.08-9.89,5.7-13.14a13.57,13.57,0,0,1,7.7-2.31,11.73,11.73,0,0,1,11.06,6.71,20.87,20.87,0,0,1,1.63,10.17Zm10.2-5.11c0-1.26-.11-6.21-4.77-6.21-3.52,0-5,3-5.15,6.21Z" transform="translate(0 0)"/></g></g></g></svg>